<svg xmlns="http://www.w3.org/2000/svg" viewBox="0 0 506 118" width="506" height="118">
    <style type="text/css">.a{fill:#1d1d1b}.b{fill:#ae1022}.c{fill:#ffffff}</style>
    <path class="a" d="M456.9 79c-1.6 0-3.2-.5-4.7-1.6-1.5-1-2.9-2.4-4.3-4.2-1.4-1.8-2.8-3.8-4.2-6.1-1.4-2.3-2.9-4.8-4.4-7.3 1.4-.5 2.8-1.2 4.1-2.1 1.3-.8 2.4-1.9 3.4-3.1 1-1.2 1.7-2.6 2.3-4.2.6-1.6.9-3.5.9-5.5 0-2.1-.3-4.1-1-5.8-.7-1.7-1.8-3.1-3.2-4.3-1.4-1.2-3.2-2.1-5.4-2.7-2.2-.6-4.7-.9-7.7-.9-2.4 0-4.9 0-7.4.1s-4.8.2-6.9.4v49.9h6.9v-21.1h7.1l2.8 5.1c1.9 3.4 3.5 6.2 4.8 8.3 1.3 2.1 2.5 3.8 3.6 5 1.1 1.2 2.2 2 3.4 2.5 1.2.4 2.6.7 4.2.7 1.1 0 2.3-.1 3.4-.2 1.1-.2 2.1-.4 2.8-.6v-2.3h-.5zm-22-22.6c-1.9.4-4.4.5-7.5.5h-2.1v-22c1-.1 1.9-.2 2.6-.2.7 0 1.5-.1 2.5-.1 1.9 0 3.6.2 5.1.6 1.5.4 2.8 1 3.8 1.8 1.1.8 1.9 1.9 2.4 3.3.6 1.3.9 3 .9 4.9 0 1.5-.1 2.8-.2 3.9-.2 1.1-.4 2-.6 2.8-.3.8-.6 1.4-1 1.9s-.8.9-1.3 1.2c-1.2.6-2.6 1.1-4.6 1.4zm-234.9 25.2l-4.2-38.1-17.8 38.1h-3.2l-19.4-38.1-3.4 38.1h-4.5l5.2-50.3h4.1l20.7 41 19.4-41h4.2l5.7 50.3h-6.8zm44.5 0h-27.1v-50h26l-.5 3.6-18.6.2v17.7l17.6.2-.5 3.2-17.1.5v20.7l20.7.4-.5 3.5zm51.1-37.4c-1.2-3-3-5.4-5.2-7.4s-5-3.4-8.1-4.4c-3.1-1-6.7-1.4-10.5-1.4-1.5 0-3 0-4.6.1-1.6.1-3.2.1-4.7.2s-3 .2-4.4.3c-1.4.1-2.7.2-3.8.4v49.1c2.2.2 4.7.4 7.6.6 2.9.2 5.8.2 8.8.2 4.4 0 8.3-.7 11.7-2 3.3-1.4 6.1-3.2 8.4-5.6 2.2-2.4 3.9-5.3 5.1-8.7 1.1-3.4 1.7-7 1.7-11-.1-3.9-.7-7.4-2-10.4zm-5.9 19.3c-.4 2.2-.9 4.1-1.5 5.7-.6 1.6-1.3 2.8-2 3.8-.8 1-1.6 1.7-2.4 2.3-1.6 1.1-3.7 2-6.2 2.5s-5.4.8-8.6.7c-1.6 0-3.1-.1-4.3-.2-1.3-.1-2.4-.3-3.4-.4v-42.7c.6-.1 1.2-.1 1.7-.2s1.1-.1 1.7-.2c.6 0 1.3-.1 2.1-.1h2.9c2.7 0 5.3.3 7.8 1s4.7 1.9 6.6 3.5c1.9 1.6 3.5 3.8 4.6 6.4 1.2 2.6 1.7 5.9 1.7 9.8-.1 3.1-.3 5.8-.7 8.1zm19-31.9h6.9v50h-6.9v-50zm37.9 50.7c-3.7 0-6.8-.6-9.3-1.9-2.5-1.2-4.6-3-6.2-5.2-1.6-2.2-2.8-4.9-3.5-8.1-.7-3.2-1.1-6.7-1.1-10.6 0-4.8.7-8.7 2.1-12 1.4-3.2 3.2-5.9 5.4-7.9s4.7-3.4 7.5-4.3c2.8-.9 5.6-1.3 8.3-1.3 1 0 2.2 0 3.4.1 1.3.1 2.5.2 3.7.2 1.2.1 2.3.2 3.4.3 1 .1 1.9.2 2.5.4l-1.8 5.9c-.7-.2-1.6-.4-2.8-.7-1.2-.2-2.5-.5-3.8-.7-1.4-.2-2.7-.4-4.1-.5-1.3-.1-2.4-.2-3.3-.2-2 0-3.7.2-5.1.5-1.4.3-2.8.9-4 1.9-1.5 1.1-2.5 3.3-3.1 6.4-.6 3.2-.9 7.1-.9 11.8 0 7.2 1.1 12.7 3.2 16.4 2.1 3.7 5.6 5.6 10.3 5.6 1.3 0 2.7-.1 4.1-.2 1.4-.1 2.8-.2 4.3-.4 1.4-.2 2.8-.4 4.2-.7 1.3-.3 2.6-.6 3.8-1v2.6c-1.2.6-2.5 1.1-3.9 1.5-1.4.4-2.8.8-4.3 1.1-1.5.3-2.9.5-4.4.7-1.8.2-3.3.3-4.6.3m46.1-52l-6 1.7-20.2 49.6h5.1l6.8-18.1 19.6-.2 6.4 18.4h7.1l-18.8-51.4zm-12.9 29.7l8.8-23.3 8.4 23.3h-17.2zm111.2 21.6h-27.1v-50h26l-.5 3.6-18.6.2v17.7l17.6.2-.5 3.2-17.1.5v20.7l20.7.4-.5 3.5z"/>
    <path class="b" d="M147.5 87.8h344v3h-344z"/>
    <path class="a" d="M499.5 24.5c.4-.1.8-.4 1.1-.8.3-.4.5-.9.5-1.4 0-1.6-1-2.4-2.9-2.4h-2.1v8.2h1.1v-3.6c.5 0 .9.1 1.2.1l2.2 3.5h1.3l-2.4-3.6zm-1.5-.7c-.3 0-.5 0-.8-.1v-2.7c.3 0 .6-.1.7-.1.7 0 1.2.1 1.5.3.3.2.5.5.5 1 0 .6-.2.9-.5 1.2-.2.2-.7.4-1.4.4zm.5-7.2c-4.1 0-7.5 3.4-7.5 7.5s3.4 7.5 7.5 7.5 7.5-3.4 7.5-7.5c0-4.2-3.4-7.5-7.5-7.5zm0 14c-3.6 0-6.5-2.9-6.5-6.5s2.9-6.5 6.5-6.5 6.5 2.9 6.5 6.5-2.9 6.5-6.5 6.5z"/>
    <path class="b" d="M59 .2c-32.6 0-59 26.4-59 59s26.4 59 59 59 59-26.4 59-59-26.4-59-59-59"/>
    <path class="c" d="M79.5 69.4h-10.2v10.3c0 5.7-4.6 10.3-10.3 10.3-5.7 0-10.3-4.6-10.3-10.3v-10.3h-10.2c-5.7 0-10.3-4.6-10.3-10.3 0-5.7 4.6-10.3 10.3-10.3h10.3v-10.2c0-5.7 4.6-10.3 10.3-10.3 5.7 0 10.3 4.6 10.3 10.3v10.3h10.3c5.7 0 10.3 4.6 10.3 10.3-.2 5.6-4.8 10.2-10.5 10.2"/>
</svg>
